<svg width="137" height="32" viewBox="0 0 137 32" fill="none" xmlns="http://www.w3.org/2000/svg">
<g clip-path="url(#clip0_460_1543)">
<path fill-rule="evenodd" clip-rule="evenodd" d="M0.5 0.5H136.5V31.5H0.5V0.5Z" fill="black"/>
<path fill-rule="evenodd" clip-rule="evenodd" d="M90.6552 20.3389H82.2915C81.8957 20.3389 81.6311 20.0429 81.7235 19.6849L83.2158 13.2782C83.2955 12.9076 83.6927 12.6116 84.0878 12.6116H88.3282C88.7248 12.6116 88.9759 12.9076 88.8976 13.2782L88.4482 15.1914H91.8701L92.3718 12.9815C92.6766 11.6234 91.7382 10.5 90.2713 10.5H82.8065C81.3404 10.5 79.9004 11.6234 79.5836 12.9815L78.0377 19.8702C77.7209 21.2401 78.6713 22.3517 80.1254 22.3517H90.1923L90.6552 20.3389ZM96.7187 13.7232C97.0496 13.5254 97.3925 13.3896 97.6571 13.3896H101.977L101.502 14.8709H97.5774C97.1159 14.8709 96.3497 15.1795 96.1909 15.7966L94.5265 22.3517H91.5004L93.562 13.3896H96.8111L96.7187 13.7232ZM72.4236 13.7232C72.7404 13.5254 73.084 13.3896 73.3606 13.3896H77.668L77.2051 14.8709H73.2815C72.8187 14.8709 72.0525 15.1795 71.8937 15.7966L70.2166 22.3517H67.2173L69.2521 13.3896H72.5012L72.4236 13.7232ZM65.8309 18.2774L60.705 18.2906L61.0613 16.5494H62.4485C63.9541 16.5494 63.9414 14.9072 62.8979 14.9072H60.9823C60.3875 14.9072 60.0439 15.4874 59.9254 16.0187L59.0801 19.5122C58.9341 20.1042 59.1718 20.3389 59.7405 20.3389H65.3419L64.9193 22.3517H56.7285C55.8699 22.3517 55.328 21.6977 55.5262 20.9072L56.9529 14.8466C57.1511 14.0442 57.9964 13.3902 58.8551 13.3902H65.4478C66.293 13.3902 66.8349 14.0442 66.65 14.8466L65.8309 18.2774ZM118.173 10.6121H123.3L122.876 11.8713H121.12C120.71 11.8713 120.341 12.0809 120.063 12.427L119.838 13.3896H122.654L122.257 14.9204H120.447C119.826 14.9204 119.112 15.1795 118.914 15.908L117.117 22.3523H114.118L116.154 14.9211H114.238L114.621 13.3902H116.523L117.078 11.4025C117.184 11.0314 117.725 10.6121 118.173 10.6121ZM125.136 14.9197H123.023L123.406 13.3896H125.506L126.035 11.4019H129.232L128.691 13.3896H130.5L130.103 14.9197H128.32L126.352 22.3517H123.035L125.136 14.9197ZM50.8893 14.9197H48.7621L49.1586 13.3896H51.2463L51.7219 11.4019H54.7078L54.245 13.3896H56.1076L55.7245 14.9197H53.8752L52.105 22.3517H49.1191L50.8893 14.9197ZM36.0529 22.3517L36.5157 20.4141H42.9758C43.874 20.4141 44.389 19.9328 44.389 19.4021C44.3756 18.9076 44.1781 18.5253 42.9758 18.5253H39.5539C38.0214 18.5253 37.1366 16.8461 37.3081 15.6858C37.4668 14.6613 38.3516 13.2043 39.937 13.2043H47.4674L47.243 14.9817H41.2451C40.8627 14.9817 40.4393 15.3647 40.3998 15.7227C40.3737 16.0557 40.7561 16.4756 41.1005 16.4756H45.1828C46.5833 16.4756 47.5478 18.019 47.4286 19.1417C47.2437 20.8334 45.9095 22.3517 43.584 22.3517H36.0529ZM102.559 15.0931L102.954 13.3896H111.212C113.022 13.3896 112.994 14.513 112.757 15.488L111.079 22.3147H103.112C101.289 22.3147 100.84 20.2156 101.012 19.1793C101.224 17.9326 102.372 16.6609 103.958 16.6609H108.094L107.683 18.1548H104.606C104.011 18.1548 103.351 18.76 103.337 19.3032C103.337 19.8464 103.8 20.4259 104.566 20.4259H108.226L109.388 16.1545C109.534 15.6238 109.269 15.1175 108.581 15.0931C108.583 15.0931 102.597 15.0681 102.559 15.0931ZM25.907 15.0931L26.2901 13.3896H34.5472C36.357 13.3896 36.3436 14.513 36.0931 15.488L34.4153 22.3147H26.4616C24.625 22.3147 24.1763 20.2156 24.3477 19.1793C24.5587 17.9326 25.7215 16.6609 27.2934 16.6609H31.4421L31.0188 18.1548H27.9404C27.359 18.1548 26.6852 18.76 26.6852 19.3032C26.6718 19.8464 27.1474 20.4259 27.9136 20.4259H31.5599L32.7354 16.1545C32.8814 15.6113 32.6564 15.0931 31.9162 15.0931H25.907ZM13.013 22.5H15.4704L20.0678 16.7967L18.4563 22.5H21.7061L24.5989 11.0188H20.3719L15.2983 17.3274L12.9862 11.0188H9.39278L6.5 22.5H9.76249L10.9252 17.3386L13.013 22.5ZM130.157 21.3641C130.157 20.7589 129.642 20.2644 128.994 20.2644C128.347 20.2644 127.819 20.7589 127.819 21.3641C127.819 21.9693 128.347 22.4492 128.994 22.4492C129.642 22.4492 130.157 21.9693 130.157 21.3641Z" fill="white"/>
<path fill-rule="evenodd" clip-rule="evenodd" d="M130.024 17.1865C130.024 17.316 129.562 17.4212 128.994 17.4212C128.858 17.4214 128.724 17.4155 128.598 17.4038C128.473 17.3921 128.359 17.3748 128.263 17.353C128.167 17.3311 128.091 17.3052 128.04 17.2766C127.988 17.248 127.962 17.2174 127.963 17.1865C127.961 17.1554 127.986 17.1244 128.036 17.0955C128.087 17.0666 128.163 17.0403 128.259 17.0181C128.355 16.996 128.469 16.9784 128.595 16.9664C128.722 16.9545 128.857 16.9484 128.994 16.9485C129.562 16.9483 130.024 17.057 130.024 17.1865Z" fill="black"/>
<path fill-rule="evenodd" clip-rule="evenodd" d="M128.558 17.3251H128.717V17.1985H129.14C129.418 17.1985 129.337 17.2529 129.365 17.2858L129.391 17.3251H129.589C129.523 17.2977 129.535 17.2918 129.523 17.2528C129.509 17.2044 129.497 17.1985 129.377 17.1806C129.497 17.1565 129.549 17.1445 129.535 17.1052C129.523 17.039 129.324 17.0298 129.126 17.0298H128.558V17.3251Z" fill="white"/>
<path fill-rule="evenodd" clip-rule="evenodd" d="M129.14 17.0631C129.232 17.0631 129.39 17.0691 129.377 17.1202C129.351 17.1595 129.244 17.1654 129.14 17.1654H128.716V17.063L129.14 17.0631Z" fill="black"/>
</g>
<defs>
<clipPath id="clip0_460_1543">
<rect width="136" height="31" fill="white" transform="translate(0.5 0.5)"/>
</clipPath>
</defs>
</svg>
