<svg width="13" height="13" viewBox="0 0 13 13" fill="none" xmlns="http://www.w3.org/2000/svg">
<path d="M5.19531 1.35352L5.79688 0.751953C6.07031 0.505859 6.48047 0.505859 6.72656 0.751953L12.0586 6.05664C12.3047 6.33008 12.3047 6.74023 12.0586 6.98633L6.72656 12.3184C6.48047 12.5645 6.07031 12.5645 5.79688 12.3184L5.19531 11.7168C4.94922 11.4434 4.94922 11.0332 5.19531 10.7598L8.50391 7.61523H0.65625C0.273438 7.61523 0 7.3418 0 6.95898V6.08398C0 5.72852 0.273438 5.42773 0.65625 5.42773H8.50391L5.19531 2.31055C4.94922 2.03711 4.92188 1.62695 5.19531 1.35352Z" fill="#E5E7EB"/>
</svg>
