<svg width="40" height="41" viewBox="0 0 40 41" fill="none" xmlns="http://www.w3.org/2000/svg">
<path fill-rule="evenodd" clip-rule="evenodd" d="M18.3335 4.09668C21.5551 4.09668 24.1668 6.70832 24.1668 9.92996C24.1668 13.0443 21.7264 15.5886 18.6535 15.7547L18.3335 15.7633C15.1118 15.7633 12.5001 13.1517 12.5001 9.92996C12.5001 6.81574 14.9406 4.27137 18.0134 4.10527L18.3335 4.09668ZM6.66675 34.0967H21.3379C20.7417 33.0664 20.3354 31.9373 20.1384 30.7633H10.0001V28.0967L10.0088 27.7731C10.1695 24.7758 12.549 22.43 15.4167 22.43H21.2501L21.5554 22.4389C21.853 22.4563 22.1445 22.4989 22.4279 22.5648C23.2706 21.5884 24.2936 20.7834 25.4409 20.1941C24.1964 19.4944 22.7684 19.0967 21.2501 19.0967H15.4167L15.0561 19.1042C10.3909 19.2987 6.66675 23.2504 6.66675 28.0967V34.0967ZM15.8335 9.92996C15.8335 8.54926 16.9528 7.42996 18.3335 7.42996C19.7142 7.42996 20.8335 8.54926 20.8335 9.92996C20.8335 11.3107 19.7142 12.43 18.3335 12.43C16.9528 12.43 15.8335 11.3107 15.8335 9.92996ZM25.1019 35.8385L30.0001 32.8467L34.8983 35.8385L33.5666 30.2554L37.9256 26.5215L32.2043 26.0629L30.0001 20.7633L27.7959 26.0629L22.0746 26.5215L26.4336 30.2554L25.1019 35.8385Z" fill="#106264"/>
</svg>
