<svg width="18" height="25" viewBox="0 0 18 25" fill="none" xmlns="http://www.w3.org/2000/svg">
<path d="M9.94272 23.9778C9.69268 24.2277 9.3536 24.3682 9.00005 24.3682C8.6465 24.3682 8.30742 24.2277 8.05738 23.9778L0.514717 16.4351C0.38737 16.3121 0.285794 16.165 0.215915 16.0023C0.146036 15.8396 0.109255 15.6647 0.107716 15.4876C0.106178 15.3106 0.139914 15.135 0.206955 14.9712C0.273996 14.8073 0.373 14.6584 0.498191 14.5333C0.623381 14.4081 0.77225 14.3091 0.936112 14.242C1.09997 14.175 1.27555 14.1412 1.45259 14.1428C1.62962 14.1443 1.80458 14.1811 1.96726 14.251C2.12993 14.3209 2.27706 14.4224 2.40005 14.5498L7.66672 19.8164V2.15911C7.66672 1.80549 7.80719 1.46635 8.05724 1.2163C8.30729 0.966257 8.64643 0.825783 9.00005 0.825783C9.35367 0.825783 9.69281 0.966257 9.94286 1.2163C10.1929 1.46635 10.3334 1.80549 10.3334 2.15911V19.8164L15.6001 14.5498C15.8515 14.3069 16.1883 14.1725 16.5379 14.1756C16.8875 14.1786 17.2219 14.3188 17.4691 14.566C17.7164 14.8132 17.8566 15.1477 17.8596 15.4972C17.8627 15.8468 17.7283 16.1836 17.4854 16.4351L9.94272 23.9778Z" fill="white"/>
</svg>
