<svg width="40" height="41" viewBox="0 0 40 41" fill="none" xmlns="http://www.w3.org/2000/svg">
<path d="M30 3.26343L22.5 10.7634L24.25 12.5134L28.75 8.01343V24.5134C28.75 30.7634 23.75 35.7634 17.5 35.7634C15.5 35.7634 13.625 35.2634 12.125 34.3884C12.625 34.5134 13.125 34.5134 13.75 34.5134C19.25 34.5134 23.75 30.0134 23.75 24.5134C23.75 19.0134 19.25 14.5134 13.75 14.5134C8.25 14.5134 3.75 19.0134 3.75 24.5134C3.75 32.1384 9.875 38.2634 17.5 38.2634C25.125 38.2634 31.25 32.1384 31.25 24.5134V8.01343L35.75 12.5134L37.5 10.7634L30 3.26343ZM6.25 25.2634V24.5134C6.25 20.3884 9.625 17.0134 13.75 17.0134C17.875 17.0134 21.25 20.3884 21.25 24.5134C21.25 28.6384 17.875 32.0134 13.75 32.0134C9.875 32.0134 6.625 29.0134 6.25 25.2634Z" fill="#106264"/>
</svg>
