<svg width="40" height="41" viewBox="0 0 40 41" fill="none" xmlns="http://www.w3.org/2000/svg">
<g clip-path="url(#clip0_460_1832)">
<path d="M20.1724 0.763316C20.8274 0.763316 21.4724 0.805816 22.0724 0.905816C22.6636 0.981964 23.2467 1.11081 23.8149 1.29082C24.3816 1.46082 24.9433 1.67998 25.4999 1.94832C26.0424 2.20582 26.5999 2.52082 27.1574 2.86332C28.0999 3.46332 29.0274 3.94832 29.9724 4.33582C31.8323 5.08192 33.7998 5.52504 35.7999 5.64832C36.8116 5.72332 37.8591 5.76165 38.9424 5.76332V15.7633C38.9424 17.6616 38.6999 19.4667 38.215 21.1783C37.749 22.8688 37.087 24.499 36.2424 26.0358C35.4016 27.5705 34.4064 29.0155 33.2724 30.3483C32.1218 31.7121 30.8753 32.992 29.5424 34.1783C28.1908 35.3666 26.7691 36.4728 25.2849 37.4908C23.7983 38.5242 22.3033 39.4767 20.7999 40.3483L20.1999 40.7058L19.5999 40.3483C18.0578 39.4558 16.5516 38.5025 15.0849 37.4908C13.5929 36.4837 12.1705 35.377 10.8274 34.1783C9.49544 32.9919 8.24978 31.712 7.09995 30.3483C5.96983 29.0092 4.97028 27.5651 4.11495 26.0358C3.2856 24.4919 2.62432 22.8634 2.14245 21.1783C1.6576 19.4145 1.41703 17.5925 1.42745 15.7633V5.76332C2.51078 5.76165 3.55912 5.72332 4.57245 5.64832C5.57176 5.58039 6.56455 5.43748 7.54245 5.22082C8.49995 5.00582 9.45745 4.72082 10.3999 4.33582C11.3777 3.94058 12.3153 3.45252 13.1999 2.87832C14.2999 2.16332 15.4149 1.63582 16.5149 1.28832C17.6997 0.92554 18.9335 0.748441 20.1724 0.763316ZM36.4274 8.22082C34.5351 8.1282 32.6604 7.81183 30.8424 7.27832C29.0348 6.73769 27.3127 5.94399 25.7274 4.92082C24.9049 4.38233 24.0125 3.95922 23.0749 3.66332C22.1379 3.38071 21.1637 3.24081 20.1849 3.24832C19.199 3.24231 18.2175 3.38215 17.2724 3.66332C16.3338 3.9504 15.4426 4.37411 14.6274 4.92082C13.0389 5.94855 11.3125 6.74566 9.49995 7.28832C7.72828 7.80332 5.87078 8.11832 3.92745 8.23332V15.7758C3.92745 17.4308 4.14245 19.0208 4.57245 20.5458C5.0109 22.0599 5.61453 23.5212 6.37245 24.9033C7.13977 26.2997 8.04423 27.6162 9.07245 28.8333C10.1149 30.0608 11.2274 31.2033 12.4274 32.2883C13.6274 33.3733 14.8849 34.3783 16.1999 35.3033C17.5283 36.23 18.8566 37.0775 20.1849 37.8458C21.5449 37.0555 22.8702 36.2072 24.1574 35.3033C25.4827 34.3809 26.747 33.3738 27.9424 32.2883C29.1424 31.2033 30.2575 30.0608 31.2999 28.8333C32.3282 27.6162 33.2326 26.2997 34 24.9033C34.7541 23.5227 35.3487 22.0608 35.7724 20.5458C36.216 18.9949 36.4365 17.3888 36.4274 15.7758V8.22082Z" fill="#106264"/>
<path fill-rule="evenodd" clip-rule="evenodd" d="M29.4924 12.5358L28.3924 11.5908L27.3774 11.6783L16.4774 24.5483L12.7649 19.2483L11.7649 19.0783L10.6074 19.9058L10.4349 20.9058L15.2074 27.7208L15.7499 28.0208L16.8924 28.0908L17.4774 27.8358L29.5649 13.5483L29.4924 12.5358Z" fill="#106264"/>
</g>
<defs>
<clipPath id="clip0_460_1832">
<rect width="40" height="40" fill="white" transform="translate(0 0.763428)"/>
</clipPath>
</defs>
</svg>
