<svg width="22" height="15" viewBox="0 0 22 15" fill="none" xmlns="http://www.w3.org/2000/svg">
<path d="M1 6.5C0.447715 6.5 0 6.94772 0 7.5C0 8.05228 0.447715 8.5 1 8.5V7.5V6.5ZM21.2071 8.20711C21.5976 7.81658 21.5976 7.18342 21.2071 6.79289L14.8431 0.428932C14.4526 0.0384079 13.8195 0.0384079 13.4289 0.428932C13.0384 0.819456 13.0384 1.45262 13.4289 1.84315L19.0858 7.5L13.4289 13.1569C13.0384 13.5474 13.0384 14.1805 13.4289 14.5711C13.8195 14.9616 14.4526 14.9616 14.8431 14.5711L21.2071 8.20711ZM1 7.5V8.5H20.5V7.5V6.5H1V7.5Z" fill="white"/>
</svg>
